<?xml version="1.0" standalone="no"?>
<!DOCTYPE svg PUBLIC "-//W3C//DTD SVG 20010904//EN"
 "http://www.w3.org/TR/2001/REC-SVG-20010904/DTD/svg10.dtd">
<svg version="1.0" xmlns="http://www.w3.org/2000/svg"
 width="512.000000pt" height="512.000000pt" viewBox="0 0 512.000000 512.000000"
 preserveAspectRatio="xMidYMid meet">

<g transform="translate(0.000000,512.000000) scale(0.100000,-0.100000)"
fill="#000000" stroke="none">
<path d="M2370 4954 c-335 -31 -677 -140 -930 -297 -225 -140 -431 -357 -533
-562 -106 -214 -133 -475 -74 -706 128 -495 634 -901 1277 -1023 47 -9 95 -19
107 -21 14 -3 50 -47 104 -127 96 -144 121 -173 171 -199 47 -24 89 -24 136 0
50 26 75 55 171 199 55 80 90 124 104 127 12 2 72 14 132 25 234 46 501 156
700 288 66 43 142 107 221 186 179 177 277 338 331 545 36 132 38 352 6 482
-92 368 -384 690 -803 887 -281 132 -542 190 -880 196 -107 2 -215 2 -240 0z
m401 -164 c675 -68 1207 -428 1356 -917 23 -78 26 -104 26 -233 0 -129 -3
-155 -27 -235 -130 -429 -568 -768 -1136 -881 -69 -13 -135 -27 -148 -29 -40
-9 -100 -75 -176 -189 -40 -61 -80 -117 -89 -125 -24 -19 -38 -5 -115 113 -74
114 -131 179 -170 194 -15 6 -79 20 -142 32 -576 107 -1024 450 -1157 887 -23
78 -26 104 -26 233 0 129 3 155 26 233 75 246 236 451 485 618 349 234 831
345 1293 299z"/>
<path d="M2494 4361 c-23 -10 -52 -34 -65 -52 -22 -31 -25 -47 -29 -169 -5
-117 -9 -141 -29 -182 -27 -52 -12 -46 -205 -84 -72 -14 -91 -15 -94 -4 -3 7
-13 21 -23 31 -17 17 -37 19 -209 19 -189 0 -191 0 -215 -25 l-25 -24 0 -431
0 -431 25 -24 c24 -25 26 -25 215 -25 204 0 204 0 236 55 10 18 29 17 580 -19
639 -43 614 -44 669 29 27 35 30 51 73 387 25 201 41 364 38 384 -8 42 -50 93
-93 110 -24 10 -88 14 -247 14 l-214 0 -4 133 c-3 123 -5 135 -31 179 -39 67
-85 98 -185 125 -104 28 -115 28 -168 4z m204 -197 c21 -24 22 -33 22 -190 0
-162 0 -165 25 -189 l24 -25 256 0 256 0 -6 -32 c-3 -18 -21 -161 -40 -318
-20 -156 -37 -285 -38 -286 -1 -2 -253 14 -560 34 l-557 37 0 250 0 250 173
33 c94 18 180 38 190 43 9 6 40 55 67 109 l50 100 0 119 0 119 58 -14 c35 -9
66 -25 80 -40z m-778 -724 l0 -320 -80 0 -80 0 0 320 0 320 80 0 80 0 0 -320z"/>
<path d="M1003 1825 c-177 -48 -317 -195 -354 -372 -24 -117 5 -258 75 -362
l33 -48 -70 -6 c-141 -12 -260 -94 -325 -225 l-37 -76 -3 -288 -3 -288 80 0
81 0 0 256 c0 172 4 270 12 298 16 55 99 138 154 154 58 17 890 17 948 0 55
-16 138 -99 154 -154 8 -28 12 -126 12 -298 l0 -256 80 0 80 0 0 256 c0 172 4
270 12 298 16 55 99 138 154 154 58 17 890 17 948 0 55 -16 138 -99 154 -154
8 -28 12 -126 12 -298 l0 -256 80 0 80 0 0 256 c0 172 4 270 12 298 16 55 99
138 154 154 58 17 890 17 948 0 55 -16 138 -99 154 -154 8 -28 12 -126 12
-298 l0 -256 81 0 80 0 -3 287 -3 288 -32 67 c-64 136 -186 223 -329 235 l-71
6 33 48 c130 194 103 452 -64 611 -192 183 -472 183 -664 0 -167 -159 -194
-417 -64 -611 l33 -48 -70 -6 c-87 -7 -177 -48 -241 -109 l-46 -45 -46 45
c-64 61 -154 102 -241 109 l-70 6 33 48 c130 194 103 452 -64 611 -192 183
-472 183 -664 0 -167 -159 -194 -417 -64 -611 l33 -48 -70 -6 c-87 -7 -177
-48 -241 -109 l-46 -45 -46 45 c-64 61 -154 102 -241 109 l-70 6 33 48 c186
277 42 649 -283 734 -70 18 -161 18 -230 0z m268 -186 c67 -36 98 -68 137
-143 22 -43 26 -64 26 -136 1 -78 -2 -90 -33 -148 -38 -70 -70 -100 -145 -140
-43 -22 -64 -26 -136 -26 -72 0 -93 4 -136 26 -75 40 -107 70 -145 140 -31 58
-34 70 -33 148 0 100 24 160 89 225 100 100 249 121 376 54z m1440 0 c67 -36
98 -68 137 -143 22 -43 26 -64 26 -136 1 -78 -2 -90 -33 -148 -38 -70 -70
-100 -145 -140 -43 -22 -64 -26 -136 -26 -72 0 -93 4 -136 26 -75 40 -107 70
-145 140 -31 58 -34 70 -33 148 0 100 24 160 89 225 100 100 249 121 376 54z
m1440 0 c67 -36 98 -68 137 -143 22 -43 26 -64 26 -136 1 -78 -2 -90 -33 -148
-38 -70 -70 -100 -145 -140 -43 -22 -64 -26 -136 -26 -72 0 -93 4 -136 26 -75
40 -107 70 -145 140 -31 58 -34 70 -33 148 0 100 24 160 89 225 100 100 249
121 376 54z"/>
<path d="M640 400 l0 -240 80 0 80 0 0 240 0 240 -80 0 -80 0 0 -240z"/>
<path d="M1440 400 l0 -240 80 0 80 0 0 240 0 240 -80 0 -80 0 0 -240z"/>
<path d="M2080 400 l0 -240 80 0 80 0 0 240 0 240 -80 0 -80 0 0 -240z"/>
<path d="M2880 400 l0 -240 80 0 80 0 0 240 0 240 -80 0 -80 0 0 -240z"/>
<path d="M3520 400 l0 -240 80 0 80 0 0 240 0 240 -80 0 -80 0 0 -240z"/>
<path d="M4320 400 l0 -240 80 0 80 0 0 240 0 240 -80 0 -80 0 0 -240z"/>
</g>
</svg>
