<?xml version="1.0" standalone="no"?>
<!DOCTYPE svg PUBLIC "-//W3C//DTD SVG 20010904//EN"
 "http://www.w3.org/TR/2001/REC-SVG-20010904/DTD/svg10.dtd">
<svg version="1.0" xmlns="http://www.w3.org/2000/svg"
 width="512.000000pt" height="512.000000pt" viewBox="0 0 512.000000 512.000000"
 preserveAspectRatio="xMidYMid meet">

<g transform="translate(0.000000,512.000000) scale(0.100000,-0.100000)"
fill="#000000" stroke="none">
<path d="M1087 4786 c-58 -21 -103 -61 -131 -118 l-26 -52 0 -1684 c0 -1058 4
-1690 10 -1701 5 -10 23 -24 39 -31 37 -15 79 2 98 40 10 20 13 367 13 1688
l0 1663 25 24 24 25 1419 0 c1383 0 1420 0 1443 -19 l24 -19 5 -672 5 -672 24
-19 c32 -26 82 -25 109 4 l22 23 0 675 c0 756 3 716 -75 792 -74 72 31 67
-1559 67 -1169 -1 -1438 -3 -1469 -14z"/>
<path d="M2120 4225 c-260 -114 -452 -204 -462 -216 -17 -20 -18 -61 -18 -541
0 -341 4 -526 10 -539 14 -25 873 -449 911 -449 24 0 182 78 800 396 64 33 90
52 97 72 16 42 27 1024 12 1052 -13 24 -38 36 -540 267 -173 79 -326 146 -340
148 -17 3 -168 -58 -470 -190z m783 -122 c163 -75 297 -140 297 -143 0 -7
-219 -111 -232 -110 -10 0 -579 312 -576 315 14 14 186 83 198 79 8 -3 149
-66 313 -141z m-405 -182 c155 -85 282 -157 282 -161 0 -4 -50 -30 -110 -58
l-110 -52 -320 153 c-175 83 -316 155 -312 159 15 15 257 117 272 115 9 -1
143 -71 298 -156z m-353 -250 l330 -158 3 -411 c1 -227 1 -412 -2 -412 -2 0
-155 74 -340 165 l-336 164 0 406 c0 223 3 405 8 404 4 0 156 -71 337 -158z
m1169 -238 c-4 -219 -9 -401 -13 -404 -6 -7 -651 -339 -658 -339 -1 0 -3 184
-3 410 l0 410 123 58 122 58 7 -35 c4 -20 7 -64 7 -97 1 -80 25 -114 81 -114
30 0 43 6 60 28 21 26 22 33 15 162 l-7 136 128 61 c71 34 132 62 137 62 4 1
4 -178 1 -396z"/>
<path d="M4051 3024 c-21 -27 -21 -32 -21 -870 l0 -844 -289 0 c-282 0 -289 0
-321 -22 -18 -13 -43 -36 -54 -51 -20 -27 -21 -41 -24 -393 l-3 -364 -1100 0
-1100 0 -24 25 c-25 24 -25 24 -25 240 0 263 -7 285 -89 285 -16 0 -37 -10
-50 -24 -22 -23 -22 -27 -19 -273 l3 -250 30 -49 c19 -30 49 -60 79 -79 l49
-30 1156 -3 c636 -1 1170 0 1187 3 27 5 84 68 393 441 l361 435 0 903 0 903
-23 21 c-34 32 -89 30 -116 -4z m-307 -2111 c-108 -131 -207 -249 -220 -263
l-24 -25 0 263 0 262 220 0 220 0 -196 -237z"/>
<path d="M1554 2178 c-47 -22 -56 -86 -19 -123 l24 -25 544 0 544 0 21 23 c27
29 28 77 3 108 l-19 24 -539 2 c-359 1 -545 -2 -559 -9z"/>
<path d="M2910 2183 c-54 -20 -69 -92 -27 -131 23 -22 28 -22 349 -22 362 0
361 0 374 67 5 27 1 37 -24 63 l-30 30 -314 -1 c-172 0 -320 -3 -328 -6z"/>
<path d="M1531 1594 c-28 -35 -26 -67 3 -101 l24 -28 1002 0 1002 0 24 28 c29
34 31 66 3 101 l-20 26 -1009 0 -1009 0 -20 -26z"/>
<path d="M1541 1043 c-11 -10 -24 -32 -27 -50 -5 -27 -1 -37 24 -63 l30 -30
704 0 c767 0 736 -2 758 56 11 28 -2 71 -28 90 -14 11 -161 13 -728 14 -663 0
-713 -1 -733 -17z"/>
</g>
</svg>
