<?xml version="1.0" standalone="no"?>
<!DOCTYPE svg PUBLIC "-//W3C//DTD SVG 20010904//EN"
 "http://www.w3.org/TR/2001/REC-SVG-20010904/DTD/svg10.dtd">
<svg version="1.0" xmlns="http://www.w3.org/2000/svg"
 width="512.000000pt" height="512.000000pt" viewBox="0 0 512.000000 512.000000"
 preserveAspectRatio="xMidYMid meet">

<g transform="translate(0.000000,512.000000) scale(0.100000,-0.100000)"
fill="#000000" stroke="none">
<path d="M1382 5077 c-106 -40 -169 -189 -142 -338 28 -154 119 -313 266 -468
46 -49 84 -91 84 -94 0 -2 -37 -28 -82 -57 -321 -207 -405 -273 -474 -376 -20
-32 -45 -84 -56 -117 -18 -57 -18 -123 -16 -1676 l3 -1616 27 -57 c31 -66 105
-149 163 -183 93 -55 55 -53 1367 -56 1127 -2 1218 -1 1283 16 196 49 313 158
345 320 16 88 9 3213 -8 3273 -22 76 -55 136 -102 183 -25 25 -153 116 -284
203 l-238 158 79 81 c44 45 98 110 122 144 87 131 163 317 177 437 16 132 -90
226 -240 214 -121 -10 -186 -64 -221 -186 -13 -44 -32 -101 -43 -125 -45 -102
-144 -228 -220 -281 l-40 -27 -87 64 c-330 244 -526 269 -803 101 -42 -25
-112 -73 -154 -105 l-77 -58 -59 43 c-111 82 -201 209 -247 346 -61 184 -198
285 -323 237z m2324 -106 c116 -71 75 -289 -103 -538 -53 -75 -150 -183 -164
-183 -5 0 -59 33 -119 74 l-111 73 56 43 c125 97 218 232 276 403 23 69 46
119 60 130 28 22 66 22 105 -2z m-2198 -7 c29 -20 45 -52 80 -162 38 -117 89
-208 163 -286 180 -193 467 -302 778 -295 82 2 91 0 144 -30 65 -37 101 -76
133 -146 l24 -50 -33 -8 c-17 -5 -117 -9 -222 -10 -157 -1 -210 3 -305 21
-274 51 -483 156 -646 324 -152 155 -259 365 -272 530 -4 64 -3 68 26 97 35
36 92 42 130 15z m1125 -335 c43 -12 221 -126 785 -505 214 -144 407 -271 429
-283 61 -31 135 -120 161 -193 l22 -63 0 -1616 0 -1616 -31 -61 c-37 -74 -88
-115 -179 -143 -67 -21 -272 -23 -2295 -23 -130 0 -159 3 -214 23 -111 39
-167 91 -204 188 l-22 58 3 1595 c2 1752 -1 1646 63 1744 40 60 150 148 277
223 54 31 130 79 171 106 l75 50 30 -18 c131 -79 251 -130 379 -164 l72 -18 6
-56 c17 -151 140 -267 318 -297 184 -31 375 64 447 223 24 53 28 76 28 152 1
77 -3 98 -25 145 -36 74 -88 132 -154 170 -58 33 -170 57 -370 80 -111 13
-201 32 -257 57 l-38 16 123 84 c211 146 288 173 400 142z m200 -774 c-9 -49
-48 -128 -79 -159 -64 -64 -177 -84 -277 -50 -69 23 -141 93 -166 160 -12 30
-21 60 -21 67 0 9 66 12 274 12 l275 0 -6 -30z"/>
<path d="M3570 2851 c-51 -16 -94 -45 -175 -116 -111 -99 -217 -150 -510 -247
-131 -43 -282 -99 -333 -123 -157 -74 -267 -165 -337 -277 -17 -27 -33 -48
-38 -48 -19 0 -271 75 -337 101 -73 28 -100 46 -210 136 -61 51 -111 67 -162
53 -75 -21 -119 -81 -137 -186 -6 -33 -18 -97 -26 -144 -76 -399 189 -858 563
-977 150 -47 291 -40 449 23 l65 26 91 -30 c134 -45 212 -55 351 -49 146 7
210 23 341 87 262 128 481 398 588 725 93 285 102 596 23 838 -40 124 -67 177
-95 191 -37 19 -82 26 -111 17z m35 -114 c56 -133 89 -378 82 -607 -4 -152 -9
-190 -35 -291 -52 -202 -128 -349 -248 -478 -240 -260 -608 -362 -877 -243
-26 11 -47 24 -47 27 0 3 13 20 30 38 40 43 85 130 100 196 17 71 7 199 -20
278 -43 123 -151 255 -255 309 l-54 29 26 45 c103 180 238 263 635 394 139 46
284 97 321 114 92 42 191 110 252 171 27 28 55 51 63 51 7 0 19 -15 27 -33z
m-1969 -603 c59 -33 145 -64 384 -138 144 -45 225 -91 318 -184 163 -161 203
-373 105 -554 -82 -151 -280 -236 -448 -194 -191 48 -383 206 -470 385 -65
135 -95 268 -95 423 0 89 22 270 40 338 l11 41 47 -41 c26 -23 74 -57 108 -76z"/>
</g>
</svg>
