<?xml version="1.0" standalone="no"?>
<!DOCTYPE svg PUBLIC "-//W3C//DTD SVG 20010904//EN"
 "http://www.w3.org/TR/2001/REC-SVG-20010904/DTD/svg10.dtd">
<svg version="1.0" xmlns="http://www.w3.org/2000/svg"
 width="512.000000pt" height="512.000000pt" viewBox="0 0 512.000000 512.000000"
 preserveAspectRatio="xMidYMid meet">

<g transform="translate(0.000000,512.000000) scale(0.100000,-0.100000)"
fill="#000000" stroke="none">
<path d="M3368 4883 c-14 -9 -31 -27 -37 -40 -7 -15 -11 -125 -11 -303 l0
-280 -771 -2 -771 -3 -29 -33 -29 -32 0 -213 c0 -237 4 -251 63 -280 36 -18
38 -18 74 0 57 27 63 48 63 216 l0 147 700 0 700 0 0 -1500 0 -1500 -700 0
-699 0 -3 386 -3 386 -34 30 c-28 25 -39 29 -70 24 -23 -3 -46 -17 -63 -36
l-28 -30 0 -445 0 -445 29 -32 29 -33 771 -3 771 -2 0 -280 c0 -179 4 -288 11
-303 12 -28 58 -57 88 -57 16 0 1536 602 1642 650 14 6 33 24 42 40 16 26 17
155 17 1650 0 1495 -1 1624 -17 1650 -9 16 -28 34 -42 40 -115 52 -1626 650
-1644 650 -12 0 -34 -8 -49 -17z m852 -511 l695 -278 0 -1534 0 -1534 -145
-58 c-79 -32 -145 -58 -147 -58 -1 0 -4 162 -5 360 l-3 360 -27 26 c-37 37
-99 37 -136 0 l-27 -26 -5 -402 -5 -402 -445 -178 c-245 -98 -446 -178 -447
-178 -2 0 -3 448 -3 995 l0 995 260 0 c143 0 260 -4 260 -8 0 -4 -18 -25 -40
-47 -47 -46 -57 -82 -35 -128 25 -53 80 -71 133 -43 44 23 280 268 287 299 4
15 4 39 0 54 -8 35 -245 276 -293 299 -78 37 -163 -39 -133 -119 6 -14 27 -44
47 -66 l36 -41 -261 0 -261 0 0 995 c0 547 1 995 3 995 1 0 315 -125 697 -278z"/>
<path d="M4495 2083 c-53 -13 -89 -87 -65 -134 53 -103 207 -57 186 55 -10 54
-67 91 -121 79z"/>
<path d="M1785 3461 c-64 -27 -81 -110 -32 -158 60 -61 162 -19 162 67 0 66
-72 116 -130 91z"/>
<path d="M64 2970 c-12 -4 -31 -21 -43 -36 -21 -26 -21 -34 -21 -375 l0 -349
29 -32 29 -33 213 -3 c232 -3 260 1 284 49 18 34 19 60 3 94 -21 47 -53 55
-213 55 l-145 0 0 60 0 60 125 0 c165 0 205 19 205 100 0 81 -40 100 -205 100
l-125 0 0 60 0 60 145 0 c160 0 192 8 213 55 15 33 15 57 0 90 -22 50 -49 55
-270 54 -112 0 -213 -4 -224 -9z"/>
<path d="M894 2971 c-32 -14 -54 -51 -54 -92 0 -30 17 -61 95 -173 52 -75 95
-141 95 -146 0 -5 -43 -71 -95 -146 -80 -114 -95 -143 -95 -175 0 -58 36 -94
93 -94 24 0 52 6 61 14 10 8 50 61 89 118 39 57 73 103 76 103 3 0 35 -44 71
-96 73 -108 110 -144 146 -144 57 0 104 47 104 105 0 21 -139 242 -188 298
-14 15 -14 19 0 35 50 57 188 276 188 298 0 64 -58 113 -119 99 -35 -8 -65
-40 -141 -153 -30 -45 -58 -81 -61 -82 -3 0 -37 46 -76 103 -39 57 -78 109
-86 116 -20 16 -77 23 -103 12z"/>
<path d="M1784 2970 c-12 -4 -31 -21 -43 -36 -21 -26 -21 -35 -21 -366 l0
-340 34 -34 c46 -46 86 -46 132 0 l35 35 -3 346 -3 347 -33 29 c-33 29 -60 35
-98 19z"/>
<path d="M2210 2967 c-14 -7 -33 -29 -43 -50 -18 -36 -18 -38 0 -74 21 -45 53
-63 111 -63 l42 0 0 -287 c0 -258 2 -290 18 -309 41 -52 109 -55 153 -8 l24
26 3 289 3 289 39 0 c71 0 120 41 120 100 0 33 -26 75 -55 88 -37 17 -381 16
-415 -1z"/>
</g>
</svg>
